# xmcd CD database file
#
# Track frame offsets:
#	150
#	20009
#	41061
#	57559
#	80028
#	118778
#	141750
#	163197
#	183120
#	196644
#	228883
#	257387
#
# Disc length: 3700 seconds
#
# Revision: 1
# Processed by: cddbd v1.5.1PL0 Copyright (c) Steve Scherf et al.
# Submitted via: CDex 1.51
#
DISCID=9e0e720c
DTITLE=Eric Clapton and B. B. King - Riding With the King
DYEAR=1900
DGENRE=Blues
TTITLE0=Riding With the King
TTITLE1=Ten long years
TTITLE2=Key to the highway
TTITLE3=Marry you
TTITLE4=Three O'Clock Blues
TTITLE5=Help the Poor
TTITLE6=I Wanna Be
TTITLE7=Worried life blues
TTITLE8=Days of old
TTITLE9=When my heart beats like a hammer
TTITLE10=hold on I'm coming
TTITLE11=Come rain or come shine
EXTD=
EXTT0=
EXTT1=
EXTT2=
EXTT3=
EXTT4=
EXTT5=
EXTT6=
EXTT7=
EXTT8=
EXTT9=
EXTT10=
EXTT11=
PLAYORDER=
